G04 DipTrace 4.3.0.5*
G04 BottomMask.gbr*
%MOMM*%
G04 #@! TF.FileFunction,Soldermask,Bot*
G04 #@! TF.Part,Single*
%ADD36C,2.1*%
%ADD38R,2.1X2.1*%
%ADD40C,1.3*%
%ADD42R,1.3X1.3*%
%ADD44C,0.4*%
%ADD54C,1.3*%
%FSLAX35Y35*%
G04*
G71*
G90*
G75*
G01*
G04 BotMask*
%LPD*%
D54*
X-3063873Y1635127D3*
X-2698750D3*
D44*
X3658373Y276860D3*
Y-90140D3*
X3474873Y276860D3*
X3658373Y93360D3*
X3474873Y-90140D3*
X3462873Y93360D3*
X3291373Y-90140D3*
Y276860D3*
Y93360D3*
D42*
X-2227250Y1556000D3*
D40*
X-2027250D3*
D38*
X-2701000Y889000D3*
D36*
X-2447000D3*
X-2193000D3*
X-1939000D3*
X-1685000D3*
X-1431000D3*
X-1177000D3*
X-923000D3*
X-669000D3*
X-415000D3*
X-161000D3*
X93000D3*
X347000D3*
X601000D3*
X855000D3*
X1109000D3*
X1363000D3*
X1617000D3*
X1871000D3*
X2125000D3*
D38*
X-2701000Y-889000D3*
D36*
X-2447000D3*
X-2193000D3*
X-1939000D3*
X-1685000D3*
X-1431000D3*
X-1177000D3*
X-923000D3*
X-669000D3*
X-415000D3*
X-161000D3*
X93000D3*
X347000D3*
X601000D3*
X855000D3*
X1109000D3*
X1363000D3*
X1617000D3*
X1871000D3*
X2125000D3*
D42*
X2122497Y1556000D3*
D40*
X2322497D3*
D42*
X1392250D3*
D40*
X1592250D3*
D42*
X2852750D3*
D40*
X3052750D3*
D38*
X-3293427Y-629970D3*
D36*
Y-375970D3*
Y-121970D3*
Y132030D3*
Y386030D3*
Y640030D3*
G36*
X3206750Y349250D2*
X3746500D1*
Y-174627D1*
X3206750D1*
Y349250D1*
G37*
G36*
X15873Y269873D2*
X238127D1*
Y-15873D1*
X15873D1*
Y269873D1*
G37*
M02*
