M48
METRIC,0000.00
T01C0.2
T02C0.7
T03C0.9
T04C3.0
%
T01
X+000063Y+000222
X+000063Y+000127
X+000063Y+000032
X+000190Y+000032
X+000190Y+000127
X+000190Y+000222
X-000603Y-000476
X-000603Y-000556
X+001334Y-000222
X+002000Y-000556
X+002127Y+000143
X+001905Y+000381
X+002701Y+000016
X+002828Y-000095
X+003286Y-000095
X+003291Y-000090
X+003291Y+000093
X+003286Y+000095
X+003286Y+000270
X+003291Y+000277
X+003475Y+000277
X+003477Y+000270
X+003477Y+000095
X+003463Y+000093
X+003475Y-000090
X+003477Y-000095
X+003658Y-000090
X+003667Y-000095
X+003658Y+000093
X+003667Y+000095
X+003667Y+000270
X+003658Y+000277
X+003969Y+000651
X+004604Y+000984
X+004016Y+001476
X+004223Y+001699
X+002508Y+001572
X+001778Y+001588
X+002955Y-000669
X+003082Y-000669
X+003209Y-000669
X+003336Y-000458
X+004098Y-000667
T02
X-003064Y+001635
X-002699Y+001635
X-002227Y+001556
X-002027Y+001556
X+001392Y+001556
X+001592Y+001556
X+002122Y+001556
X+002322Y+001556
X+002853Y+001556
X+003053Y+001556
T03
X-002701Y+000889
X-002447Y+000889
X-002193Y+000889
X-001939Y+000889
X-001685Y+000889
X-001431Y+000889
X-001177Y+000889
X-000923Y+000889
X-000669Y+000889
X-000415Y+000889
X-000161Y+000889
X+000093Y+000889
X+000347Y+000889
X+000601Y+000889
X+000855Y+000889
X+001109Y+000889
X+001363Y+000889
X+001617Y+000889
X+001871Y+000889
X+002125Y+000889
X+002125Y-000889
X+001871Y-000889
X+001617Y-000889
X+001363Y-000889
X+001109Y-000889
X+000855Y-000889
X+000601Y-000889
X+000347Y-000889
X+000093Y-000889
X-000161Y-000889
X-000415Y-000889
X-000669Y-000889
X-000923Y-000889
X-001177Y-000889
X-001431Y-000889
X-001685Y-000889
X-001939Y-000889
X-002193Y-000889
X-002447Y-000889
X-002701Y-000889
X-003293Y-000630
X-003293Y-000376
X-003293Y-000122
X-003293Y+000132
X-003293Y+000386
X-003293Y+000640
T04
X-003600Y+001475
X-003600Y-001475
X+003550Y-001475
X+003550Y+001475
T00
M30
