G04 DipTrace 4.3.0.5*
G04 BottomSilk.gbr*
%MOMM*%
G04 #@! TF.FileFunction,Legend,Bot*
G04 #@! TF.Part,Single*
%ADD16C,0.15*%
%ADD60C,0.11765*%
%ADD61C,0.23529*%
%ADD62C,0.15686*%
%FSLAX35Y35*%
G04*
G71*
G90*
G75*
G01*
G04 BotSilk*
%LPD*%
X-1837250Y1411000D2*
D16*
Y1891000D1*
X-2417250D1*
Y1411000D1*
X-1837250D1*
X2512497D2*
Y1891000D1*
X1932497D1*
Y1411000D1*
X2512497D1*
X1782250D2*
Y1891000D1*
X1202250D1*
Y1411000D1*
X1782250D1*
X3242750D2*
Y1891000D1*
X2662750D1*
Y1411000D1*
X3242750D1*
X3137064Y1256493D2*
D61*
X3071532D1*
X3049632Y1263905D1*
X3042220Y1271149D1*
X3034976Y1285637D1*
Y1300293D1*
X3042220Y1314780D1*
X3049632Y1322193D1*
X3071532Y1329437D1*
X3137064D1*
Y1176305D1*
X3086020Y1256493D2*
X3034976Y1176305D1*
X2885829Y1307537D2*
X2900317Y1322193D1*
X2922217Y1329437D1*
X2951361D1*
X2973261Y1322193D1*
X2987917Y1307537D1*
Y1293049D1*
X2980505Y1278393D1*
X2973261Y1271149D1*
X2958773Y1263905D1*
X2914973Y1249249D1*
X2900317Y1242005D1*
X2893073Y1234593D1*
X2885829Y1220105D1*
Y1198205D1*
X2900317Y1183717D1*
X2922217Y1176305D1*
X2951361D1*
X2973261Y1183717D1*
X2987917Y1198205D1*
X2787727Y1329437D2*
Y1176305D1*
X2838771Y1329437D2*
X2736683D1*
X2428714Y1249249D2*
X2363014D1*
X2341282Y1256493D1*
X2333870Y1263905D1*
X2326626Y1278393D1*
Y1300293D1*
X2333870Y1314780D1*
X2341282Y1322193D1*
X2363014Y1329437D1*
X2428714D1*
Y1176305D1*
X2279567Y1329437D2*
X2243011Y1176305D1*
X2206623Y1329437D1*
X2170236Y1176305D1*
X2133679Y1329437D1*
X2086621Y1256493D2*
X2021089D1*
X1999189Y1263905D1*
X1991777Y1271149D1*
X1984533Y1285637D1*
Y1300293D1*
X1991777Y1314780D1*
X1999189Y1322193D1*
X2021089Y1329437D1*
X2086621D1*
Y1176305D1*
X2035577Y1256493D2*
X1984533Y1176305D1*
X1655881Y1329437D2*
X1670537Y1322193D1*
X1685025Y1307537D1*
X1692437Y1293049D1*
X1699681Y1271149D1*
Y1234593D1*
X1692437Y1212861D1*
X1685025Y1198205D1*
X1670537Y1183717D1*
X1655881Y1176305D1*
X1626737D1*
X1612249Y1183717D1*
X1597593Y1198205D1*
X1590349Y1212861D1*
X1583105Y1234593D1*
Y1271149D1*
X1590349Y1293049D1*
X1597593Y1307537D1*
X1612249Y1322193D1*
X1626737Y1329437D1*
X1655881D1*
X1536047Y1249249D2*
X1470347D1*
X1448615Y1256493D1*
X1441203Y1263905D1*
X1433959Y1278393D1*
Y1300293D1*
X1441203Y1314780D1*
X1448615Y1322193D1*
X1470347Y1329437D1*
X1536047D1*
Y1176305D1*
X1335856Y1329437D2*
Y1176305D1*
X1386900Y1329437D2*
X1284812D1*
X-2016899Y1293049D2*
X-2009655Y1307537D1*
X-1994999Y1322193D1*
X-1980512Y1329437D1*
X-1951368D1*
X-1936712Y1322193D1*
X-1922224Y1307537D1*
X-1914812Y1293049D1*
X-1907568Y1271149D1*
Y1234593D1*
X-1914812Y1212861D1*
X-1922224Y1198205D1*
X-1936712Y1183717D1*
X-1951368Y1176305D1*
X-1980512D1*
X-1994999Y1183717D1*
X-2009655Y1198205D1*
X-2016899Y1212861D1*
X-2063958Y1329437D2*
Y1176305D1*
X-2166046Y1329437D2*
Y1176305D1*
X-2063958Y1256493D2*
X-2166046D1*
X-2213105D2*
X-2278636D1*
X-2300536Y1263905D1*
X-2307948Y1271149D1*
X-2315192Y1285637D1*
Y1300293D1*
X-2307948Y1314780D1*
X-2300536Y1322193D1*
X-2278636Y1329437D1*
X-2213105D1*
Y1176305D1*
X-2264148Y1256493D2*
X-2315192Y1176305D1*
X-2986291Y1866915D2*
D62*
Y1764827D1*
X-3030091D1*
X-3044691Y1769768D1*
X-3049520Y1774598D1*
X-3054349Y1784256D1*
Y1798856D1*
X-3049520Y1808627D1*
X-3044691Y1813456D1*
X-3030091Y1818285D1*
X-3044691Y1823227D1*
X-3049520Y1828056D1*
X-3054349Y1837715D1*
Y1847485D1*
X-3049520Y1857144D1*
X-3044691Y1862085D1*
X-3030091Y1866915D1*
X-2986291D1*
Y1818285D2*
X-3030091D1*
X-3129409Y1859558D2*
Y1772071D1*
X-3085722Y1815758D2*
X-3173209D1*
X-2636831Y1866915D2*
Y1764827D1*
X-2680631D1*
X-2695231Y1769768D1*
X-2700060Y1774598D1*
X-2704889Y1784256D1*
Y1798856D1*
X-2700060Y1808627D1*
X-2695231Y1813456D1*
X-2680631Y1818285D1*
X-2695231Y1823227D1*
X-2700060Y1828056D1*
X-2704889Y1837715D1*
Y1847485D1*
X-2700060Y1857144D1*
X-2695231Y1862085D1*
X-2680631Y1866915D1*
X-2636831D1*
Y1818285D2*
X-2680631D1*
X-2736262Y1815815D2*
X-2792416D1*
X-2027661Y1774402D2*
D60*
X-2078705Y1697836D1*
Y1774402D2*
X-2027661Y1697836D1*
X-2102234Y1734308D2*
X-2135084D1*
X-2145950Y1737930D1*
X-2149656Y1741636D1*
X-2153278Y1748880D1*
Y1759830D1*
X-2149656Y1767074D1*
X-2145950Y1770780D1*
X-2135084Y1774402D1*
X-2102234D1*
Y1697836D1*
X-2176808Y1759746D2*
X-2184136Y1763452D1*
X-2195086Y1774318D1*
Y1697836D1*
X2303776Y1774402D2*
X2252732Y1697836D1*
Y1774402D2*
X2303776Y1697836D1*
X2229203Y1734308D2*
X2196353D1*
X2185487Y1737930D1*
X2181781Y1741636D1*
X2178159Y1748880D1*
Y1759830D1*
X2181781Y1767074D1*
X2185487Y1770780D1*
X2196353Y1774402D1*
X2229203D1*
Y1697836D1*
X2118158D2*
Y1774318D1*
X2154630Y1723358D1*
X2099964D1*
X1582875Y1773249D2*
X1531831Y1696683D1*
Y1773249D2*
X1582875Y1696683D1*
X1508302Y1733155D2*
X1475452D1*
X1464586Y1736777D1*
X1460880Y1740483D1*
X1457258Y1747727D1*
Y1758677D1*
X1460880Y1765921D1*
X1464586Y1769627D1*
X1475452Y1773249D1*
X1508302D1*
Y1696683D1*
X1390013Y1773164D2*
X1426401D1*
X1430023Y1740399D1*
X1426401Y1744021D1*
X1415451Y1747727D1*
X1404585D1*
X1393635Y1744021D1*
X1386307Y1736777D1*
X1382685Y1725827D1*
Y1718583D1*
X1386307Y1707633D1*
X1393635Y1700305D1*
X1404585Y1696683D1*
X1415451D1*
X1426401Y1700305D1*
X1430023Y1704011D1*
X1433729Y1711255D1*
X3035115Y1774402D2*
X2984072Y1697836D1*
Y1774402D2*
X3035115Y1697836D1*
X2960542Y1734308D2*
X2927692D1*
X2916826Y1737930D1*
X2913120Y1741636D1*
X2909498Y1748880D1*
Y1759830D1*
X2913120Y1767074D1*
X2916826Y1770780D1*
X2927692Y1774402D1*
X2960542D1*
Y1697836D1*
X2842253Y1763452D2*
X2845875Y1770696D1*
X2856825Y1774318D1*
X2864069D1*
X2875019Y1770696D1*
X2882347Y1759746D1*
X2885969Y1741552D1*
Y1723358D1*
X2882347Y1708786D1*
X2875019Y1701458D1*
X2864069Y1697836D1*
X2860447D1*
X2849581Y1701458D1*
X2842253Y1708786D1*
X2838631Y1719736D1*
Y1723358D1*
X2842253Y1734308D1*
X2849581Y1741552D1*
X2860447Y1745174D1*
X2864069D1*
X2875019Y1741552D1*
X2882347Y1734308D1*
X2885969Y1723358D1*
M02*
